<svg width="400" height="400" viewBox="0 0 400 400" fill="none" xmlns="http://www.w3.org/2000/svg">
<rect width="400" height="400" fill="#1A1414"/>
<path d="M88.3636 222.612C76.0077 222.612 66 212.604 66 200.248C66 187.892 76.0077 177.885 88.3636 177.885C100.72 177.885 110.727 187.892 110.727 200.248C110.727 212.604 100.72 222.612 88.3636 222.612ZM312 177.885C299.644 177.885 289.636 187.892 289.636 200.248C289.636 212.604 299.644 222.612 312 222.612C324.356 222.612 334.363 212.604 334.363 200.248C334.363 187.892 324.356 177.885 312 177.885ZM100.149 254.994C90.6894 262.933 89.4483 277.045 97.3873 286.505C105.326 295.964 119.438 297.206 128.898 289.267C138.357 281.327 139.599 267.216 131.66 257.756C123.72 248.296 109.609 247.055 100.149 254.994ZM300.214 145.502C309.674 137.563 310.915 123.452 302.976 113.992C295.037 104.532 280.926 103.291 271.466 111.23C262.006 119.169 260.765 133.28 268.704 142.74C276.643 152.2 290.754 153.441 300.214 145.502ZM128.898 111.241C119.438 103.302 105.326 104.532 97.3873 114.003C89.4483 123.474 90.6783 137.574 100.149 145.513C109.62 153.452 123.72 152.222 131.66 142.751C139.599 133.28 138.369 119.18 128.898 111.241ZM300.214 254.994C290.754 247.055 276.643 248.285 268.704 257.756C260.765 267.216 261.995 281.327 271.466 289.267C280.926 297.206 295.037 295.976 302.976 286.505C310.915 277.045 309.685 262.933 300.214 254.994ZM243.109 207.069C233.649 199.13 219.537 200.36 211.598 209.831C203.659 219.302 204.889 233.402 214.36 241.341C223.831 249.28 237.931 248.05 245.871 238.579C253.81 229.108 252.58 215.008 243.109 207.069ZM186.003 159.155C176.543 151.216 162.432 152.446 154.493 161.917C146.554 171.388 147.784 185.488 157.255 193.427C166.726 201.366 180.826 200.136 188.765 190.665C196.704 181.194 195.474 167.094 186.003 159.155Z" fill="white"/>
</svg>
